<?xml version="1.0" encoding="UTF-8"?>
<svg xmlns="http://www.w3.org/2000/svg" version="1.1" viewBox="0 0 113.45 160">
  <defs>
    <style>
      .cls-1 {
        fill: #6515dc;
      }
    </style>
  </defs>
  <!-- Generator: Adobe Illustrator 28.6.0, SVG Export Plug-In . SVG Version: 1.2.0 Build 709)  -->
  <g>
    <g id="Layer_1">
      <path class="cls-1" d="M12.57,65.96V1.69C12.57.75,13.33-.02,14.27,0c10.64.22,68.29,1.97,98.16,14.87.62.27,1.01.89,1.01,1.57v124.48c0,.75-.49,1.41-1.21,1.62-8.85,2.58-64.45,18.19-110.57,17.44-.93-.02-1.67-.78-1.67-1.71v-56.73c0-.89.67-1.63,1.56-1.69,11.51-.79,83.39-6.09,106.08-16.39,1.35-.62,1.36-2.53,0-3.11-8.29-3.5-34.43-12.03-93.38-12.7-.93-.01-1.69-.76-1.69-1.69Z"/>
    </g>
  </g>
</svg>